<?xml version="1.0" standalone="no"?><!DOCTYPE svg PUBLIC "-//W3C//DTD SVG 1.1//EN" "http://www.w3.org/Graphics/SVG/1.1/DTD/svg11.dtd"><svg t="1619284338985" class="icon" viewBox="0 0 1152 1024" version="1.1" xmlns="http://www.w3.org/2000/svg" p-id="2679" xmlns:xlink="http://www.w3.org/1999/xlink" width="23" height="23"><defs><style type="text/css"></style></defs><path d="M1152 48v255.968c0 42.922-51.92 63.96-81.942 33.942l-71.414-71.418-487.046 487.046c-18.746 18.746-49.136 18.746-67.882 0l-45.254-45.254c-18.746-18.746-18.746-49.138 0-67.882L885.512 153.352l-71.406-71.41C783.964 51.8 805.312 0 848.048 0H1104c26.51 0 48 21.49 48 48zM814.058 541.588l-32 32A47.998 47.998 0 0 0 768 607.53V896H128V256h528a48.006 48.006 0 0 0 33.94-14.058l32-32C752.178 179.702 730.762 128 688 128H96C42.98 128 0 170.98 0 224v704c0 53.02 42.98 96 96 96h704c53.02 0 96-42.98 96-96V575.528c0-42.764-51.704-64.18-81.942-33.94z" p-id="2680" fill="#c45749"></path></svg>