<?xml version="1.0" standalone="no"?><!DOCTYPE svg PUBLIC "-//W3C//DTD SVG 1.1//EN" "http://www.w3.org/Graphics/SVG/1.1/DTD/svg11.dtd"><svg t="1616927480704" class="icon" viewBox="0 0 1024 1024" version="1.1" xmlns="http://www.w3.org/2000/svg" p-id="5972" xmlns:xlink="http://www.w3.org/1999/xlink" width="25" height="25"><defs><style type="text/css"></style></defs><path d="M512 597.333333a85.333333 85.333333 0 0 1 85.333333 85.333334 85.333333 85.333333 0 0 1-85.333333 85.333333 85.333333 85.333333 0 0 1-85.333333-85.333333 85.333333 85.333333 0 0 1 85.333333-85.333334m488.96-219.306666l-67.84 293.973333L640 604.16l162.133333-101.546667A340.138667 340.138667 0 0 0 512 341.333333c-168.533333 0-308.48 122.026667-336.213333 282.88l-84.053334-14.933333C126.293333 408.746667 301.226667 256 512 256c152.746667 0 287.146667 80.64 362.666667 201.386667l126.293333-79.36z" fill="#2a9bc4" p-id="5973"></path></svg>