<?xml version="1.0" standalone="no"?><!DOCTYPE svg PUBLIC "-//W3C//DTD SVG 1.1//EN" "http://www.w3.org/Graphics/SVG/1.1/DTD/svg11.dtd"><svg t="1618581788393" class="icon" viewBox="0 0 1024 1024" version="1.1" xmlns="http://www.w3.org/2000/svg" p-id="9500" xmlns:xlink="http://www.w3.org/1999/xlink" width="30" height="30"><defs><style type="text/css"></style></defs><path d="M426.666667 270.933333V181.76c-34.133333 8.746667-65.92 22.826667-95.146667 40.96l62.506667 62.506667c10.453333-5.333333 21.333333-10.453333 32.64-14.293334zM122.24 230.826667l100.48 100.48A338.88 338.88 0 0 0 170.666667 512c0 94.293333 38.613333 179.2 100.48 240.853333L170.666667 853.333333h256V597.333333l-95.36 95.36a254.058667 254.058667 0 0 1-46.08-298.88l344.96 344.96c-10.453333 5.546667-21.333333 10.453333-32.64 14.506667v88.96c34.133333-8.746667 65.92-22.826667 95.146666-40.96l100.693334 100.693333 54.4-54.4L176.426667 176.426667l-54.186667 54.4zM853.333333 170.666667H597.333333v256l95.36-95.36a254.058667 254.058667 0 0 1 46.08 298.88l62.506667 62.506666C834.133333 640.213333 853.333333 578.56 853.333333 512c0-94.293333-38.613333-179.2-100.48-240.853333L853.333333 170.666667z" fill="#707070" p-id="9501"></path></svg>